<svg xmlns="http://www.w3.org/2000/svg" width="96" height="96" viewBox="0 0 96 96"><path d="M 48 0 A 48 48 0 0 0 0 48 A 48 48 0 0 0 48 96 A 48 48 0 0 0 96 48 A 48 48 0 0 0 48 0 z M 48 18 A 4 4 0 0 1 52 22 A 4 4 0 0 1 49 25.869141 L 49 25.902344 C 48.956018 25.900344 48.911248 25.900437 48.867188 25.898438 A 4 4 0 0 1 48 26 A 4 4 0 0 1 47.101562 25.894531 C 47.06782 25.895851 47.03372 25.895484 47 25.896484 L 47 25.867188 A 4 4 0 0 1 44 22 A 4 4 0 0 1 48 18 z M 29.673828 25.615234 A 4 4 0 0 1 32.443359 26.787109 A 4 4 0 0 1 32.443359 32.443359 A 4 4 0 0 1 26.787109 32.443359 A 4 4 0 0 1 26.787109 26.787109 A 4 4 0 0 1 29.673828 25.615234 z M 66.443359 25.615234 A 4 4 0 0 1 69.212891 26.787109 A 4 4 0 0 1 69.212891 32.443359 A 4 4 0 0 1 64.355469 33.060547 L 64.269531 33.146484 C 64.108719 32.969094 63.930624 32.808409 63.763672 32.636719 A 4 4 0 0 1 63.738281 32.613281 A 4 4 0 0 1 63.556641 32.443359 A 4 4 0 0 1 63.435547 32.308594 C 63.241087 32.116824 63.058202 31.913526 62.857422 31.728516 L 62.943359 31.642578 A 4 4 0 0 1 63.556641 26.787109 A 4 4 0 0 1 66.443359 25.615234 z M 47.875 26.875 C 48.252383 26.875 48.627504 26.884797 49 26.904297 L 49 37.050781 C 48.670194 37.020881 48.337441 37 48 37 C 47.662559 37 47.329807 37.020881 47 37.050781 L 47 26.896484 C 47.29047 26.884984 47.581609 26.875 47.875 26.875 z M 33.740234 32.326172 L 40.966797 39.552734 C 40.453898 39.980564 39.980555 40.453887 39.552734 40.966797 L 32.320312 33.736328 C 32.771828 33.244108 33.24432 32.773702 33.740234 32.326172 z M 62.140625 32.445312 C 62.632756 32.896922 63.101399 33.371178 63.548828 33.867188 L 56.447266 40.966797 C 56.019445 40.453887 55.546102 39.980564 55.033203 39.552734 L 62.140625 32.445312 z M 48 38 A 10 10 0 0 1 58 48 A 10 10 0 0 1 48 58 A 10 10 0 0 1 38 48 A 10 10 0 0 1 48 38 z M 22 44 A 4 4 0 0 1 26 48 A 4 4 0 0 1 22 52 A 4 4 0 0 1 18 48 A 4 4 0 0 1 22 44 z M 74 44 A 4 4 0 0 1 78 48 A 4 4 0 0 1 74 52 A 4 4 0 0 1 70.130859 49 L 69.974609 49 C 69.989429 48.6679 70 48.3358 70 48 C 70 47.6648 69.989379 47.3316 69.974609 47 L 70.132812 47 A 4 4 0 0 1 74 44 z M 26.775391 47 L 37.050781 47 C 37.020861 47.3298 37 47.6625 37 48 C 37 48.338 37.020751 48.6696 37.050781 49 L 26.775391 49 C 26.759901 48.6679 26.75 48.3359 26.75 48 C 26.75 47.6647 26.759961 47.3315 26.775391 47 z M 58.949219 47 L 68.974609 47 C 68.989999 47.3315 69 47.6647 69 48 C 69 48.3359 68.990089 48.6679 68.974609 49 L 58.949219 49 C 58.979249 48.6696 59 48.338 59 48 C 59 47.6625 58.979139 47.3298 58.949219 47 z M 39.552734 55.033203 C 39.980558 55.546103 40.453897 56.019366 40.966797 56.447266 L 33.742188 63.671875 C 33.246567 63.224675 32.77355 62.755472 32.322266 62.263672 L 39.552734 55.033203 z M 56.447266 55.033203 L 63.546875 62.132812 C 63.099675 62.628412 62.63051 63.101434 62.138672 63.552734 L 55.033203 56.447266 C 55.546103 56.019366 56.019444 55.546103 56.447266 55.033203 z M 47 58.947266 C 47.329809 58.977266 47.662555 59 48 59 C 48.337445 59 48.670192 58.977266 49 58.947266 L 49 69.09375 C 48.627504 69.11275 48.252383 69.125 47.875 69.125 C 47.581606 69.125 47.290473 69.113562 47 69.101562 L 47 58.947266 z M 29.673828 62.384766 A 4 4 0 0 1 32.443359 63.556641 A 4 4 0 0 1 32.443359 69.212891 A 4 4 0 0 1 26.787109 69.212891 A 4 4 0 0 1 26.787109 63.556641 A 4 4 0 0 1 29.673828 62.384766 z M 66.443359 62.384766 A 4 4 0 0 1 69.212891 63.556641 A 4 4 0 0 1 69.212891 69.212891 A 4 4 0 0 1 63.556641 69.212891 A 4 4 0 0 1 62.941406 64.355469 L 62.857422 64.271484 C 63.033135 64.109584 63.19251 63.930872 63.363281 63.763672 A 4 4 0 0 1 63.376953 63.75 A 4 4 0 0 1 63.556641 63.556641 A 4 4 0 0 1 63.669922 63.455078 C 63.868076 63.253278 64.077691 63.062916 64.267578 62.853516 L 64.357422 62.943359 A 4 4 0 0 1 66.443359 62.384766 z M 48 70 A 4 4 0 0 1 48.871094 70.099609 L 49 70.099609 L 49 70.136719 A 4 4 0 0 1 52 74.003906 A 4 4 0 0 1 48 78.003906 A 4 4 0 0 1 44 74.003906 A 4 4 0 0 1 47 70.134766 L 47 70.105469 L 47.115234 70.105469 A 4 4 0 0 1 48 70 z "/></svg>