<svg xmlns="http://www.w3.org/2000/svg" width="96" height="96" viewBox="0 0 96 96"><path style="line-height:normal;text-indent:0;text-align:start;text-decoration-line:none;text-decoration-style:solid;text-decoration-color:#000;text-transform:none;block-progression:tb;white-space:normal;isolation:auto;mix-blend-mode:normal;solid-color:#000;solid-opacity:1" fill-rule="evenodd" d="M 48 0 C 21.50218 0 0 21.50217 0 48 C -1e-005 74.4979 21.50217 96 48 96 C 74.497831 96 96.000011 74.4979 96 48 C 96 21.50217 74.497823 0 48 0 z M 48 2 C 73.416943 2 94 22.58305 94 48 C 94.000011 73.417 73.416951 94 48 94 C 22.58305 94 1.99999 73.417 2 48 C 2 22.58305 22.58306 2 48 2 z M 48 18 A 4 4 0 0 0 44 22 A 4 4 0 0 0 47 25.867188 L 47 25.896484 C 47.03372 25.895484 47.06782 25.895851 47.101562 25.894531 A 4 4 0 0 0 48 26 A 4 4 0 0 0 48.867188 25.898438 C 48.911248 25.900437 48.956018 25.900344 49 25.902344 L 49 25.869141 A 4 4 0 0 0 52 22 A 4 4 0 0 0 48 18 z M 29.673828 25.615234 A 4 4 0 0 0 26.787109 26.787109 A 4 4 0 0 0 26.787109 32.443359 A 4 4 0 0 0 32.443359 32.443359 A 4 4 0 0 0 32.443359 26.787109 A 4 4 0 0 0 29.673828 25.615234 z M 66.443359 25.615234 A 4 4 0 0 0 63.556641 26.787109 A 4 4 0 0 0 62.943359 31.642578 L 62.857422 31.728516 C 63.058202 31.913526 63.241087 32.116824 63.435547 32.308594 A 4 4 0 0 0 63.556641 32.443359 A 4 4 0 0 0 63.738281 32.613281 A 4 4 0 0 0 63.763672 32.636719 C 63.930624 32.808409 64.108719 32.969094 64.269531 33.146484 L 64.355469 33.060547 A 4 4 0 0 0 69.212891 32.443359 A 4 4 0 0 0 69.212891 26.787109 A 4 4 0 0 0 66.443359 25.615234 z M 47.875 26.875 C 47.581609 26.875 47.29047 26.884984 47 26.896484 L 47 37.050781 C 47.329807 37.020881 47.662559 37 48 37 C 48.337441 37 48.670194 37.020881 49 37.050781 L 49 26.904297 C 48.627504 26.884797 48.252383 26.875 47.875 26.875 z M 33.740234 32.326172 C 33.24432 32.773702 32.771828 33.244108 32.320312 33.736328 L 39.552734 40.966797 C 39.980555 40.453887 40.453898 39.980564 40.966797 39.552734 L 33.740234 32.326172 z M 62.140625 32.445312 L 55.033203 39.552734 C 55.546102 39.980564 56.019445 40.453887 56.447266 40.966797 L 63.548828 33.867188 C 63.101399 33.371178 62.632756 32.896922 62.140625 32.445312 z M 48 38 A 10 10 0 0 0 38 48 A 10 10 0 0 0 48 58 A 10 10 0 0 0 58 48 A 10 10 0 0 0 48 38 z M 22 44 A 4 4 0 0 0 18 48 A 4 4 0 0 0 22 52 A 4 4 0 0 0 26 48 A 4 4 0 0 0 22 44 z M 74 44 A 4 4 0 0 0 70.132812 47 L 69.974609 47 C 69.989379 47.3316 70 47.6648 70 48 C 70 48.3358 69.989429 48.6679 69.974609 49 L 70.130859 49 A 4 4 0 0 0 74 52 A 4 4 0 0 0 78 48 A 4 4 0 0 0 74 44 z M 26.775391 47 C 26.759961 47.3315 26.75 47.6647 26.75 48 C 26.75 48.3359 26.759901 48.6679 26.775391 49 L 37.050781 49 C 37.020751 48.6696 37 48.338 37 48 C 37 47.6625 37.020861 47.3298 37.050781 47 L 26.775391 47 z M 58.949219 47 C 58.979139 47.3298 59 47.6625 59 48 C 59 48.338 58.979249 48.6696 58.949219 49 L 68.974609 49 C 68.990089 48.6679 69 48.3359 69 48 C 69 47.6647 68.989999 47.3315 68.974609 47 L 58.949219 47 z M 39.552734 55.033203 L 32.322266 62.263672 C 32.77355 62.755472 33.246567 63.224675 33.742188 63.671875 L 40.966797 56.447266 C 40.453897 56.019366 39.980558 55.546103 39.552734 55.033203 z M 56.447266 55.033203 C 56.019444 55.546103 55.546103 56.019366 55.033203 56.447266 L 62.138672 63.552734 C 62.63051 63.101434 63.099675 62.628412 63.546875 62.132812 L 56.447266 55.033203 z M 47 58.947266 L 47 69.101562 C 47.290473 69.113562 47.581606 69.125 47.875 69.125 C 48.252383 69.125 48.627504 69.11275 49 69.09375 L 49 58.947266 C 48.670192 58.977266 48.337445 59 48 59 C 47.662555 59 47.329809 58.977266 47 58.947266 z M 29.673828 62.384766 A 4 4 0 0 0 26.787109 63.556641 A 4 4 0 0 0 26.787109 69.212891 A 4 4 0 0 0 32.443359 69.212891 A 4 4 0 0 0 32.443359 63.556641 A 4 4 0 0 0 29.673828 62.384766 z M 66.443359 62.384766 A 4 4 0 0 0 64.357422 62.943359 L 64.267578 62.853516 C 64.077691 63.062916 63.868076 63.253278 63.669922 63.455078 A 4 4 0 0 0 63.556641 63.556641 A 4 4 0 0 0 63.376953 63.75 A 4 4 0 0 0 63.363281 63.763672 C 63.19251 63.930872 63.033135 64.109584 62.857422 64.271484 L 62.941406 64.355469 A 4 4 0 0 0 63.556641 69.212891 A 4 4 0 0 0 69.212891 69.212891 A 4 4 0 0 0 69.212891 63.556641 A 4 4 0 0 0 66.443359 62.384766 z M 48 70 A 4 4 0 0 0 47.115234 70.105469 L 47 70.105469 L 47 70.134766 A 4 4 0 0 0 44 74.003906 A 4 4 0 0 0 48 78.003906 A 4 4 0 0 0 52 74.003906 A 4 4 0 0 0 49 70.136719 L 49 70.099609 L 48.871094 70.099609 A 4 4 0 0 0 48 70 z " color="#000" enable-background="accumulate" font-family="sans-serif" font-weight="400" overflow="visible"/></svg>